<svg xmlns="http://www.w3.org/2000/svg" width="20.726" height="20.946" viewBox="0 0 20.726 20.946"><defs><style>.a,.b{fill:none;}.a{stroke-linecap:round;stroke-linejoin:round;}.b{stroke:#fff;stroke-width:2px;}.c,.d{stroke:none;}.d{fill:#fff;}</style></defs><g transform="translate(-225 -763)"><g class="a" transform="translate(227 771.948)"><path class="c" d="M2.314-.489A27.576,27.576,0,0,1,8.477-1a31.518,31.518,0,0,1,6.4.511L16.726,10H0Z"/><path class="d" d="M 8.477405548095703 -1.000003814697266 C 4.295985221862793 -1.000003814697266 2.313845634460449 -0.4887237548828125 2.313845634460449 -0.4887237548828125 L -3.814697265625e-06 9.997716903686523 L 16.72569465637207 9.997716903686523 L 14.8737154006958 -0.4887237548828125 C 14.8737154006958 -0.4887237548828125 12.6588249206543 -1.000003814697266 8.477405548095703 -1.000003814697266 M 8.477405548095703 -3.000003814697266 C 12.83654594421387 -3.000003814697266 15.22405529022217 -2.460443496704102 15.32356548309326 -2.437473297119141 C 16.10539627075195 -2.257003784179688 16.70368576049805 -1.626723289489746 16.84323501586914 -0.8365535736083984 L 18.69521522521973 9.649886131286621 C 18.79804611206055 10.23215675354004 18.63796615600586 10.83008670806885 18.25795555114746 11.2830867767334 C 17.87795639038086 11.73608684539795 17.31697463989258 11.99771690368652 16.72569465637207 11.99771690368652 L -3.814697265625e-06 11.99771690368652 C -0.6061248779296875 11.99771690368652 -1.179534912109375 11.72284698486328 -1.559154510498047 11.25033664703369 C -1.938764572143555 10.7778263092041 -2.083623886108398 10.15865707397461 -1.953023910522461 9.566776275634766 L 0.3608245849609375 -0.9196634292602539 C 0.5231246948242188 -1.655213356018066 1.084935188293457 -2.23719310760498 1.814305305480957 -2.425333023071289 C 2.04234504699707 -2.484153747558594 4.166655540466309 -3.000003814697266 8.477405548095703 -3.000003814697266 Z"/></g><path class="b" d="M2393.7,119.386s-1-9.751,3.665-9.693,3.666,9.693,3.666,9.693" transform="translate(-2161.887 654.308)"/></g></svg>